<?xml version="1.0" encoding="UTF-8"?>
<svg width="1224px" height="1349px" viewBox="0 0 1224 1349" version="1.1" xmlns="http://www.w3.org/2000/svg" xmlns:xlink="http://www.w3.org/1999/xlink">
    <title>LogoURSS_tarcza_mono</title>
    <g id="Page-1" stroke="none" stroke-width="1" fill="none" fill-rule="evenodd">
        <g id="LogoURSS_tarcza_mono" transform="translate(-0.000000, 0.000000)" fill="#4A4A4A" fill-rule="nonzero">
            <path d="M546.393914,54.6037967 C712.652553,18.8451307 887.167528,92.3744349 988.281144,126.877932 C1042.38196,145.339022 1095.44303,168.22156 1147.46433,195.525545 L1213.09628,223.360415 C1219.43463,228.565827 1223.36253,236.161887 1223.96123,244.371814 C1224.36036,249.845099 1221.67775,282.114871 1215.9134,341.181132 C1188.31778,594.161327 1118.92815,804.191731 1007.74454,971.272344 C842.438588,1219.68501 513.96643,1329.2839 465.365687,1346.64186 C449.863888,1352.01237 432.689009,1348.04508 421.10908,1336.41887 C377.132308,1291.24215 319.84221,1219.96989 249.238783,1122.6021 C494.494342,1053.31197 669.740822,944.00638 774.978221,794.685334 C859.842775,674.271263 899.236159,506.699989 922.726036,370.825797 L922.725595,370.830605 C888.065616,355.320039 850.999445,340.921278 811.527086,327.634322 C655.648018,275.163217 502.996078,253.748579 353.571269,263.390409 C371.280607,148.038445 435.554821,78.4429078 546.393914,54.6037967 Z M121.867932,0 L401.635033,14.377958 C312.090648,257.845169 271.963809,447.899824 281.254517,584.541926 C294.783958,783.524761 380.505288,906.683577 538.418506,954.018371 C344.915433,1052.06601 213.700689,1070.77553 144.774273,1010.14693 C41.3846493,919.204026 6.28165787,738.261121 1.31874965,620.632735 C-4.87460607,473.840898 10.7468242,325.268838 48.1830401,174.916556 C81.1122928,71.5938656 99.0872456,17.6376099 102.107898,13.0477887 C106.638876,6.16305684 113.784072,1.44499836 121.867932,0 Z" id="Combined-Shape"></path>
        </g>
    </g>
</svg>