<?xml version="1.0" encoding="UTF-8"?>
<svg width="1225px" height="212px" viewBox="0 0 1225 212" version="1.1" xmlns="http://www.w3.org/2000/svg" xmlns:xlink="http://www.w3.org/1999/xlink">
    <title>LogoURSS_rozwiniete_green</title>
    <defs>
        <linearGradient x1="25.3092368%" y1="47.4567955%" x2="64.3445772%" y2="46.3122686%" id="linearGradient-1">
            <stop stop-color="#009758" offset="0%"></stop>
            <stop stop-color="#02BE6F" offset="100%"></stop>
        </linearGradient>
        <linearGradient x1="43.0016198%" y1="0%" x2="50%" y2="85.0021384%" id="linearGradient-2">
            <stop stop-color="#02BE6F" offset="0%"></stop>
            <stop stop-color="#009758" offset="100%"></stop>
        </linearGradient>
    </defs>
    <g id="Page-1" stroke="none" stroke-width="1" fill="none" fill-rule="evenodd">
        <g id="LogoURSS_rozwiniete_green" fill-rule="nonzero">
            <g id="Group-3">
                <g id="Group-2" transform="translate(39.000000, 7.000000)">
                    <path d="M46.6419204,1.50381345 C72.7381286,-4.11792135 100.130264,7.44185685 116.001211,12.8662625 C124.492957,15.7685898 132.821502,19.366027 140.986845,23.6585744 L151.288535,28.0345837 C152.283412,28.8529432 152.899942,30.0471442 152.993915,31.3378533 C153.056562,32.1983259 152.635496,37.2715606 151.730715,46.5575572 C147.399264,86.3293866 102.024575,72.5793087 105.711581,51.2180903 C100.271229,48.7803802 94.4532668,46.5167048 88.2576254,44.4278197 C63.7906104,36.1786687 39.8301302,32.8120047 16.3761854,34.3278277 C19.15587,16.1929748 29.244448,5.2516367 46.6419204,1.50381345 Z" id="Combined-Shape-path" fill="url(#linearGradient-1)"></path>
                    <path d="M140.986845,23.6585744 L151.288535,28.0345837 C152.283412,28.8529432 152.899942,30.0471442 152.993915,31.3378533 C153.056562,32.1983259 152.635496,37.2715606 151.730715,46.5575572 C147.399264,86.3293866 136.507764,119.348941 119.056215,145.616221 C93.1095417,184.669975 41.5520533,201.900369 33.9236069,204.629269 C31.490421,205.473584 28.7946259,204.849874 26.9770226,203.02208 C20.0743619,195.919703 11.0820211,184.714762 0,169.407259 C38.4956849,158.513934 66.0026382,141.329652 82.52086,117.85441 C95.8413294,98.9237271 102.024575,72.5793087 105.711581,51.2180903 C100.271229,48.7803802 132.821502,19.366027 140.986845,23.6585744 Z" id="Combined-Shape-path" fill="#02BE6F"></path>
                </g>
                <path d="M19.2392611,0 L63.406026,2.27043138 C49.2696755,40.7164745 42.9348612,70.7281113 44.4015829,92.3053418 C46.5374725,123.726832 60.0702783,143.17491 85,150.649574 C54.4517165,166.132331 33.7368764,169.086761 22.8554797,159.512865 C6.53338463,145.152021 0.991683818,116.579226 0.20819069,98.0044616 C-0.769552888,74.8244807 1.69659855,51.3633839 7.60664496,27.621171 C12.8051782,11.3054273 15.6428796,2.78516483 16.1197493,2.06038359 C16.8350538,0.973211746 17.963064,0.228180498 19.2392611,0 Z" id="Combined-Shape-path" fill="url(#linearGradient-2)"></path>
            </g>
            <g id="Group-13" transform="translate(221.000000, 17.000000)" fill="#05CE79">
                <g id="Group-8" transform="translate(1.000000, 0.000000)">
                    <path d="M42,8 L42,36.4383562 C42,40.4956409 41.0515173,43.9925275 39.1545519,46.9290162 C37.2575865,49.8580324 34.727064,52.1070989 31.5666902,53.6687422 C28.4026107,55.2229141 24.8828511,56 21,56 C17.1653138,56 13.6529638,55.2229141 10.4629499,53.6687422 C7.26923029,52.1070989 4.72759351,49.8580324 2.83062809,46.9290162 C0.941073163,43.9925275 0,40.4956409 0,36.4383562 L0,8 L12.952717,8 L12.952717,35.5267746 C12.952717,37.9476961 13.5973893,39.9427153 14.8941426,41.5043587 C16.187191,43.0697387 18.2212425,43.8281449 21,43.7758406 C23.7639384,43.727273 25.7942832,42.9464503 27.0910374,41.4296389 C28.3840859,39.9165631 29.0324629,37.9476961 29.0324629,35.5267746 L29.0324629,8 L42,8 Z" id="Path"></path>
                    <path d="M68.7034377,18 C71.4412519,18 73.5392509,18.4364356 74.9974346,19.3093069 C76.4630575,20.1746539 77.7984862,21.0776242 79,22.0182178 L79,32.5679208 C77.9361216,31.7778213 76.7234479,31.1457421 75.3545408,30.6716832 C73.9856337,30.2013864 72.3042586,29.9643564 70.3104156,29.9643564 C69.239097,29.9643564 68.1231401,30.2465349 66.9625449,30.8071287 C65.809389,31.3714856 64.8385067,32.1841589 64.0461775,33.2451485 C63.2612876,34.2986139 62.8707029,35.6229703 62.8707029,37.2182178 C62.8707029,39.5584163 63.607234,41.33802 65.0877373,42.5607921 C66.5756798,43.7873263 68.3165726,44.3968317 70.3104156,44.3968317 C72.3042586,44.3968317 73.9856337,44.1522775 75.3545408,43.6594059 C76.7234479,43.1590101 77.9361216,42.5382183 79,41.7932673 L79,52.3429703 C77.7984862,53.287327 76.4630575,54.1338614 74.9974346,54.8863366 C73.5392509,55.6275245 71.4412519,56 68.7034377,56 C66.0623401,56 63.607234,55.4958411 61.3381221,54.4950495 C59.0652897,53.4829705 57.0826065,52.0984161 55.386352,50.3413861 C53.6900975,48.5768319 52.3658286,46.5714856 51.4135454,44.3215842 C50.4687024,42.0754458 50,39.7089114 50,37.2182178 C50,34.7312874 50.4687024,32.3384161 51.4135454,30.039604 C52.3658286,27.744554 53.6900975,25.690297 55.386352,23.8843564 C57.0826065,22.0784158 59.0652897,20.6487129 61.3381221,19.5952475 C63.607234,18.5342569 66.0623401,18 68.7034377,18 Z" id="Path"></path>
                    <polygon id="Path" points="115.29275 19 115.29275 21.5509434 99.74829 45.1132075 116 45.1132075 116 55 83 55 83 52.4641509 97.7770178 28.8867925 83.7072503 28.8867925 83.7072503 19"></polygon>
                    <path d="M140.83237,18 C144.16185,18 147.123451,18.7524752 149.720892,20.2574257 C152.314616,21.754851 154.343518,23.8504953 155.800165,26.5481188 C157.264244,29.2495045 158,32.45505 158,36.1647525 L158,40.3033663 L133.876135,40.3033663 C134.388935,42.0415837 135.410817,43.3358411 136.938068,44.1861386 C138.461602,45.0289109 140.222956,45.450297 142.214699,45.450297 C144.908753,45.450297 147.238646,45.0665351 149.200661,44.2914851 C151.170107,43.5089109 152.641619,42.8392084 153.615194,42.2748515 L153.615194,52.6289109 C152.414946,53.3813861 150.761354,54.1338614 148.650702,54.8863366 C146.54005,55.6275245 144.165565,56 141.530966,56 C139.022708,56 136.599917,55.5786139 134.262593,54.7358416 C131.921553,53.8930693 129.825763,52.6740594 127.975227,51.0788119 C126.120974,49.4835644 124.660611,47.5497025 123.590421,45.269703 C122.527664,42.9934656 122,40.4237624 122,37.5643564 C122,34.005148 122.821222,30.7469307 124.467382,27.7972277 C126.109826,24.8400005 128.354253,22.4659408 131.200661,20.6788119 C134.0545,18.8954451 137.26507,18 140.83237,18 Z M140.47564,27.9928713 C138.94839,27.9928713 137.629233,28.4067322 136.521883,29.2269307 C135.410817,30.0508913 134.597028,31.3037624 134.084228,32.9893069 L146.673823,32.9893069 C146.673823,31.3037624 146.034682,30.0508913 144.7564,29.2269307 C143.478117,28.4067322 142.051197,27.9928713 140.47564,27.9928713 Z" id="Shape"></path>
                    <polygon id="Path" points="177 5 177 55 165 55 165 5"></polygon>
                    <path d="M197.874187,19.0549898 L197.874187,23.7120163 C198.973101,22.1672103 200.315402,20.8296336 201.901085,19.703055 C203.48308,18.5689412 205.44859,18 207.801302,18 C211.389371,18 214.321041,19.2471489 216.592625,21.7376782 C218.864208,24.2319751 220,27.9169043 220,32.8 L220,55 L208.140564,55 L208.081562,34.6989817 C208.081562,32.9205703 207.594794,31.6696538 206.621258,30.9462322 C205.655098,30.2152754 204.578308,29.8460285 203.390889,29.8460285 C202.100216,29.8460285 201.019739,30.1889004 200.14577,30.8708758 C199.268112,31.5453159 198.512147,32.3553976 197.874187,33.2973523 L197.874187,55 L186,55 L186,19.0549898 L197.874187,19.0549898 Z" id="Path"></path>
                    <path d="M239.286977,0 C240.669213,0 241.944534,0.325094035 243.105305,0.975282106 C244.273714,1.61808215 245.216841,2.47884226 245.930868,3.56125739 C246.641077,4.64736653 247,5.85169264 247,7.18162278 C247,8.4746109 246.641077,9.67524204 245.930868,10.7872112 C245.216841,11.8917923 244.273714,12.7673294 243.105305,13.4175175 C241.944534,14.0603175 240.669213,14.3780226 239.286977,14.3780226 C237.240354,14.3780226 235.453376,13.6761155 233.926045,12.2649113 C232.40635,10.8574022 231.650322,9.161741 231.650322,7.18162278 C231.650322,5.16456254 232.40635,3.46520641 233.926045,2.08355723 C235.453376,0.694519076 237.240354,0 239.286977,0 Z M246.221061,19.7568512 L246.221061,55 L233.941318,55 L233.941318,29.4357872 L228,29.4357872 L228,19.7568512 L246.221061,19.7568512 Z" id="Shape"></path>
                    <path d="M269.063704,18 C270.924106,18 272.754621,18.4138609 274.547778,19.2340594 C276.340936,20.05802 277.820291,21.100198 278.985843,22.3643564 L278.985843,19.0534653 L291,19.0534653 L291,54.9465347 L278.985843,54.9465347 L278.985843,48.9718812 C278.096737,50.9396042 276.744396,52.6063362 274.921353,53.9683168 C273.105781,55.3227723 270.920369,56 268.361384,56 C265.709005,56 263.220999,55.3227723 260.889894,53.9683168 C258.558789,52.6063362 256.66103,50.5031686 255.196618,47.6625743 C253.732206,44.8257431 253,41.247723 253,36.9322772 C253,32.8990099 253.732206,29.4790101 255.196618,26.6685149 C256.66103,23.8504953 258.61109,21.7021782 261.054267,20.2273267 C263.504915,18.74495 266.172238,18 269.063704,18 Z M271.574125,29.8289109 C269.848211,29.8289109 268.413685,30.5324755 267.270547,31.9358416 C266.13488,33.3429698 265.567047,35.0059406 265.567047,36.9322772 C265.567047,38.8586139 266.149823,40.4801983 267.315376,41.7932673 C268.480928,43.1100995 270.020055,43.7647525 271.932757,43.7647525 C272.956351,43.7647525 274.00236,43.4938614 275.070783,42.9520792 C276.146677,42.410297 277.06567,41.5900985 277.835234,40.4839604 C278.601061,39.3815844 278.985843,37.9631688 278.985843,36.2249505 L278.985843,32.7786139 C277.958513,31.9358416 276.804168,31.2360391 275.519072,30.6716832 C274.241448,30.1110893 272.926465,29.8289109 271.574125,29.8289109 Z" id="Shape"></path>
                    <path d="M312.874187,19.0549898 L312.874187,23.7120163 C313.973101,22.1672103 315.315402,20.8296336 316.901085,19.703055 C318.48308,18.5689412 320.44859,18 322.801302,18 C326.389371,18 329.321041,19.2471489 331.592625,21.7376782 C333.864208,24.2319751 335,27.9169043 335,32.8 L335,55 L323.140564,55 L323.081562,34.6989817 C323.081562,32.9205703 322.594794,31.6696538 321.621258,30.9462322 C320.655098,30.2152754 319.578308,29.8460285 318.390889,29.8460285 C317.100216,29.8460285 316.019739,30.1889004 315.14577,30.8708758 C314.268112,31.5453159 313.512147,32.3553976 312.874187,33.2973523 L312.874187,55 L301,55 L301,19.0549898 L312.874187,19.0549898 Z" id="Path"></path>
                    <path d="M358.063704,18 C359.924106,18 361.754621,18.4138609 363.547778,19.2340594 C365.340936,20.05802 366.820291,21.100198 367.985843,22.3643564 L367.985843,19.0534653 L380,19.0534653 L380,54.9465347 L367.985843,54.9465347 L367.985843,48.9718812 C367.096737,50.9396042 365.744396,52.6063362 363.921353,53.9683168 C362.105781,55.3227723 359.920369,56 357.361384,56 C354.709005,56 352.220999,55.3227723 349.889894,53.9683168 C347.558789,52.6063362 345.66103,50.5031686 344.196618,47.6625743 C342.732206,44.8257431 342,41.247723 342,36.9322772 C342,32.8990099 342.732206,29.4790101 344.196618,26.6685149 C345.66103,23.8504953 347.61109,21.7021782 350.054267,20.2273267 C352.504915,18.74495 355.172238,18 358.063704,18 Z M360.574125,29.8289109 C358.848211,29.8289109 357.413685,30.5324755 356.270547,31.9358416 C355.13488,33.3429698 354.567047,35.0059406 354.567047,36.9322772 C354.567047,38.8586139 355.149823,40.4801983 356.315376,41.7932673 C357.480928,43.1100995 359.020055,43.7647525 360.932757,43.7647525 C361.956351,43.7647525 363.00236,43.4938614 364.070783,42.9520792 C365.146677,42.410297 366.06567,41.5900985 366.835234,40.4839604 C367.601061,39.3815844 367.985843,37.9631688 367.985843,36.2249505 L367.985843,32.7786139 C366.958513,31.9358416 365.804168,31.2360391 364.519072,30.6716832 C363.241448,30.1110893 361.926465,29.8289109 360.574125,29.8289109 Z" id="Shape"></path>
                </g>
                <g id="Group-9" transform="translate(414.000000, 5.000000)">
                    <path d="M19.8134678,3 C22.1535835,3 24.4420233,3.33003511 26.6787901,3.99010533 C28.9118651,4.64267427 30.923479,5.64778216 32.7173208,7.00542611 C34.5074719,8.35556974 35.9432846,10.0620015 37.028448,12.1209703 C38.1099205,14.1836893 38.6525027,16.5914459 38.6525027,19.3517395 C38.6525027,22.8546117 37.6706873,25.7536708 35.71444,28.0526652 C33.7655744,30.3441592 31.2704357,31.9080753 28.2290241,32.7481647 L41,50 L25.2614332,50 L12.9038531,31.3380147 L12.9038531,50 L0,50 L0,3 L19.8134678,3 Z M12.9038531,15.2713055 L12.9038531,24.0472391 C13.690043,24.3285192 14.5315986,24.5647936 15.42852,24.7523141 C16.3217496,24.9323332 17.2777275,25.0223428 18.292762,25.0223428 C20.3191391,25.0223428 22.0133237,24.6172997 23.3716241,23.8072135 C24.7299244,22.989627 25.4090745,21.7332431 25.4090745,20.041813 C25.4090745,18.1328601 24.7299244,16.8614746 23.3716241,16.2314076 C22.0133237,15.5938393 20.3191391,15.2713055 18.292762,15.2713055 L12.9038531,15.2713055 Z" id="Shape"></path>
                    <path d="M60.0637043,13 C61.9241059,13 63.7546205,13.4138609 65.5477782,14.2340594 C67.3409359,15.05802 68.820291,16.100198 69.9858435,17.3643564 L69.9858435,14.0534653 L82,14.0534653 L82,49.9465347 L69.9858435,49.9465347 L69.9858435,43.9718812 C69.0967366,45.9396042 67.7443964,47.6063362 65.9213527,48.9683168 C64.1057811,50.3227723 61.9203694,51 59.3613842,51 C56.7090046,51 54.2209988,50.3227723 51.8898938,48.9683168 C49.5587888,47.6063362 47.6610303,45.5031686 46.1966182,42.6625743 C44.7322061,39.8257431 44,36.247723 44,31.9322772 C44,27.8990099 44.7322061,24.4790101 46.1966182,21.6685149 C47.6610303,18.8504953 49.6110897,16.7021782 52.0542666,15.2273267 C54.5049155,13.74495 57.172238,13 60.0637043,13 Z M62.574125,24.8289109 C60.8482113,24.8289109 59.4136851,25.5324755 58.2705466,26.9358416 C57.1348801,28.3429698 56.5670468,30.0059406 56.5670468,31.9322772 C56.5670468,33.8586139 57.149823,35.4801983 58.3153755,36.7932673 C59.480928,38.1100995 61.0200551,38.7647525 62.9327566,38.7647525 C63.9563512,38.7647525 65.0023599,38.4938614 66.0707825,37.9520792 C67.1466772,37.410297 68.06567,36.5900985 68.835234,35.4839604 C69.6010615,34.3815844 69.9858435,32.9631688 69.9858435,31.2249505 L69.9858435,27.7786139 C68.9585133,26.9358416 67.8041683,26.2360391 66.519072,25.6716832 C65.2414476,25.1110893 63.9264653,24.8289109 62.574125,24.8289109 Z" id="Shape"></path>
                    <path d="M127,0 L127,49.9613035 L114.985843,49.9613035 L114.985843,44.0704102 C114.096737,46.0105472 112.744396,47.6539128 110.921353,48.9967995 C109.105781,50.3322665 106.920369,51 104.361384,51 C101.709005,51 99.2209988,50.3322665 96.8898938,48.9967995 C94.5587888,47.6539128 92.6610303,45.5802301 91.1966182,42.7794588 C89.7322061,39.9823979 89,36.4545391 89,32.1995927 C89,28.2228688 89.7322061,24.8508149 91.1966182,22.0797207 C92.6610303,19.3012077 94.6110897,17.1830084 97.0542666,15.7288333 C99.5049155,14.2672384 102.172238,13.532732 105.063704,13.532732 C106.924106,13.532732 108.754621,13.9407909 110.547778,14.7494908 C112.340936,15.5619002 113.820291,16.5894676 114.985843,17.8359034 L114.985843,0 L127,0 Z M107.574125,25.1958103 C105.848211,25.1958103 104.413685,25.8895114 103.270547,27.2732034 C102.13488,28.6606047 101.567047,30.3002619 101.567047,32.1995927 C101.567047,34.0989235 102.149823,35.6977745 103.315376,36.9924353 C104.480928,38.2908064 106.020055,38.9362816 107.932757,38.9362816 C108.956351,38.9362816 110.00236,38.6691882 111.070783,38.1350015 C112.146677,37.6008147 113.06567,36.7921147 113.835234,35.7014839 C114.601061,34.6145624 114.985843,33.2160319 114.985843,31.5021821 L114.985843,28.1041606 C113.958513,27.2732034 112.804168,26.5832116 111.519072,26.0267675 C110.241448,25.4740328 108.926465,25.1958103 107.574125,25.1958103 Z" id="Shape"></path>
                    <path d="M151.063704,13 C152.924106,13 154.754621,13.4138609 156.547778,14.2340594 C158.340936,15.05802 159.820291,16.100198 160.985843,17.3643564 L160.985843,14.0534653 L173,14.0534653 L173,49.9465347 L160.985843,49.9465347 L160.985843,43.9718812 C160.096737,45.9396042 158.744396,47.6063362 156.921353,48.9683168 C155.105781,50.3227723 152.920369,51 150.361384,51 C147.709005,51 145.220999,50.3227723 142.889894,48.9683168 C140.558789,47.6063362 138.66103,45.5031686 137.196618,42.6625743 C135.732206,39.8257431 135,36.247723 135,31.9322772 C135,27.8990099 135.732206,24.4790101 137.196618,21.6685149 C138.66103,18.8504953 140.61109,16.7021782 143.054267,15.2273267 C145.504915,13.74495 148.172238,13 151.063704,13 Z M153.574125,24.8289109 C151.848211,24.8289109 150.413685,25.5324755 149.270547,26.9358416 C148.13488,28.3429698 147.567047,30.0059406 147.567047,31.9322772 C147.567047,33.8586139 148.149823,35.4801983 149.315376,36.7932673 C150.480928,38.1100995 152.020055,38.7647525 153.932757,38.7647525 C154.956351,38.7647525 156.00236,38.4938614 157.070783,37.9520792 C158.146677,37.410297 159.06567,36.5900985 159.835234,35.4839604 C160.601061,34.3815844 160.985843,32.9631688 160.985843,31.2249505 L160.985843,27.7786139 C159.958513,26.9358416 158.804168,26.2360391 157.519072,25.6716832 C156.241448,25.1110893 154.926465,24.8289109 153.574125,24.8289109 Z" id="Shape"></path>
                </g>
                <g id="Group-10" transform="translate(615.000000, 5.000000)">
                    <path d="M17.6041667,2 C20.3422619,2 23.0431552,2.34058991 25.7142857,3.01802628 C28.3816962,3.69920514 30.5245533,4.59746362 32.1428571,5.71280171 L32.1428571,18.3782463 C30.1488095,17.2105102 28.1733629,16.1999699 26.2202381,15.3391384 C24.2745533,14.4708219 21.9828867,14.0366636 19.3452381,14.0366636 C17.81622,14.0366636 16.4918152,14.2724567 15.3720238,14.7402994 C14.2596724,15.2118856 13.7053571,15.9791478 13.7053571,17.0458295 C13.7053571,18.2135655 14.375,19.0931105 15.7142857,19.6807211 C17.0610124,20.2608466 18.7127971,20.9233119 20.6696429,21.6718607 L25.6696429,23.5582035 C29.0625,24.8681633 31.4620533,26.6422243 32.8720238,28.8878705 C34.2894343,31.1260307 35,33.3604494 35,35.5948671 C35,38.589062 34.1406248,41.2464095 32.4255952,43.5594256 C30.7068448,45.8649557 28.3854162,47.6839286 25.4613095,49.0088604 C22.5446429,50.3337921 19.2745533,51 15.6547619,51 C12.8757438,51 10.1190476,50.5097003 7.38095238,49.5328445 C4.64285714,48.5559886 2.25074381,47.3433397 0.208333333,45.8948976 L0.208333333,33.2144821 C2.42931524,34.9024598 4.82886952,36.2835319 7.41071429,37.3614421 C9.98883905,38.4318663 12.5744048,38.9633364 15.1636905,38.9633364 C16.7894343,38.9633364 18.0989581,38.7649712 19.0922619,38.3644974 C20.0930057,37.9677671 20.5952381,37.2791022 20.5952381,36.2985029 C20.5952381,35.6023531 20.2232143,34.9960281 19.4791667,34.487015 C18.735119,33.9705159 17.7380952,33.5251301 16.4880952,33.1545982 L9.88095238,31.0586618 C7.28050571,30.2128022 5.26041619,29.0637796 3.82440476,27.6153376 C2.38467238,26.170639 1.38764857,24.5462878 0.833333333,22.7497709 C0.275298095,20.9532539 0,19.1230525 0,17.2554232 C0,13.9430953 0.833333333,11.158494 2.5,8.90161931 C4.17410762,6.63725963 6.35788667,4.91934005 9.04761905,3.75160403 C11.7336314,2.58386801 14.5870533,2 17.6041667,2 Z" id="Path"></path>
                    <path d="M56.0637043,13 C57.9241059,13 59.7546205,13.4138609 61.5477782,14.2340594 C63.3409359,15.05802 64.820291,16.100198 65.9858435,17.3643564 L65.9858435,14.0534653 L78,14.0534653 L78,49.9465347 L65.9858435,49.9465347 L65.9858435,43.9718812 C65.0967366,45.9396042 63.7443964,47.6063362 61.9213527,48.9683168 C60.1057811,50.3227723 57.9203694,51 55.3613842,51 C52.7090046,51 50.2209988,50.3227723 47.8898938,48.9683168 C45.5587888,47.6063362 43.6610303,45.5031686 42.1966182,42.6625743 C40.7322061,39.8257431 40,36.247723 40,31.9322772 C40,27.8990099 40.7322061,24.4790101 42.1966182,21.6685149 C43.6610303,18.8504953 45.6110897,16.7021782 48.0542666,15.2273267 C50.5049155,13.74495 53.172238,13 56.0637043,13 Z M58.574125,24.8289109 C56.8482113,24.8289109 55.4136851,25.5324755 54.2705466,26.9358416 C53.1348801,28.3429698 52.5670468,30.0059406 52.5670468,31.9322772 C52.5670468,33.8586139 53.149823,35.4801983 54.3153755,36.7932673 C55.480928,38.1100995 57.0200551,38.7647525 58.9327566,38.7647525 C59.9563512,38.7647525 61.0023599,38.4938614 62.0707825,37.9520792 C63.1466772,37.410297 64.06567,36.5900985 64.835234,35.4839604 C65.6010615,34.3815844 65.9858435,32.9631688 65.9858435,31.2249505 L65.9858435,27.7786139 C64.9585133,26.9358416 63.8041683,26.2360391 62.519072,25.6716832 C61.2414476,25.1110893 59.9264653,24.8289109 58.574125,24.8289109 Z" id="Shape"></path>
                    <path d="M99.0771959,14.0549898 L99.0771959,18.7120163 C100.194899,17.1672103 101.387616,15.8296336 102.647845,14.703055 C103.908074,13.5689412 105.730906,13 108.123841,13 C110.501774,13 112.628409,13.5538699 114.5,14.6578411 C116.367839,15.76558 117.845608,17.3970471 118.925805,19.5560081 C120.043508,17.6796339 121.525027,16.115988 123.366612,14.8688391 C125.215698,13.6254578 127.289825,13 129.592744,13 C133.230905,13 136.208947,14.2471489 138.519367,16.7376782 C140.837289,19.2319751 142,22.9169043 142,27.8 L142,50 L129.937807,50 L129.862793,29.6989817 C129.862793,27.9205703 129.405211,26.6696538 128.497545,25.9462322 C127.586129,25.2152754 126.520935,24.8460285 125.301964,24.8460285 C124.229268,24.8460285 123.306601,25.1775967 122.526459,25.8407332 C121.753819,26.4963335 121.089948,27.2423625 120.531097,28.0863544 L120.531097,50 L108.468903,50 L108.39389,29.6989817 C108.39389,27.9205703 107.936306,26.6696538 107.028642,25.9462322 C106.117226,25.2152754 105.052032,24.8460285 103.833061,24.8460285 C102.760366,24.8460285 101.860202,25.1889004 101.13257,25.8708758 C100.412439,26.5453159 99.7260636,27.3553976 99.0771959,28.2973523 L99.0771959,50 L87,50 L87,14.0549898 L99.0771959,14.0549898 Z" id="Path"></path>
                    <path d="M168.5,13 C170.961707,13 173.34893,13.4740589 175.665393,14.4146535 C177.989305,15.3477228 180.07859,16.664554 181.936975,18.3576238 C183.791635,20.0431683 185.266424,22.0522767 186.361345,24.3774257 C187.45254,26.6950495 188,29.2384158 188,32.0075248 C188,34.7766337 187.45254,37.32 186.361345,39.6376238 C185.266424,41.9552475 183.791635,43.964356 181.936975,45.6574257 C180.07859,47.3429703 177.989305,48.6598015 175.665393,49.600396 C173.34893,50.5334653 170.961707,51 168.5,51 C166.034569,51 163.643621,50.5334653 161.31971,49.600396 C158.995798,48.6598015 156.902788,47.3429703 155.048128,45.6574257 C153.189744,43.964356 151.714954,41.9552475 150.623759,39.6376238 C149.540011,37.32 149,34.7766337 149,32.0075248 C149,29.2384158 149.540011,26.6950495 150.623759,24.3774257 C151.714954,22.0522767 153.189744,20.0431683 155.048128,18.3576238 C156.902788,16.664554 158.995798,15.3477228 161.31971,14.4146535 C163.643621,13.4740589 166.034569,13 168.5,13 Z M168.5,24.6182178 C167.665775,24.6182178 166.719825,24.8100993 165.669595,25.190099 C164.626814,25.5625745 163.733002,26.2736634 162.988159,27.3271287 C162.250764,28.3805941 161.885791,29.9419804 161.885791,32.0075248 C161.885791,34.0241584 162.250764,35.5742574 162.988159,36.6578218 C163.733002,37.7338609 164.626814,38.4600002 165.669595,38.84 C166.719825,39.2124755 167.665775,39.3968317 168.5,39.3968317 C169.382639,39.3968317 170.332315,39.2124755 171.345302,38.84 C172.365737,38.4600002 173.252101,37.7338609 173.996944,36.6578218 C174.741788,35.5742574 175.114209,34.0241584 175.114209,32.0075248 C175.114209,29.9419804 174.741788,28.3805941 173.996944,27.3271287 C173.252101,26.2736634 172.365737,25.5625745 171.345302,25.190099 C170.332315,24.8100993 169.382639,24.6182178 168.5,24.6182178 Z" id="Shape"></path>
                    <path d="M219,27.7721102 C218.310387,27.4092961 217.587584,27.1205265 216.831592,26.9132044 C216.071912,26.7058824 215.186847,26.6022213 214.176398,26.6022213 C212.572219,26.6022213 211.145053,27.0872071 209.898586,28.0534759 C208.659496,29.0234476 207.649047,30.2895928 206.874616,31.8593172 L206.874616,50 L195,50 L195,14.6812012 L206.874616,14.6812012 L206.874616,20.9897162 C207.973571,19.0941999 209.205286,17.4578358 210.562385,16.0732209 C211.919484,14.6923079 213.696988,14 215.902274,14 C217.100799,14 218.133374,14.2073221 219,14.6219663 L219,27.7721102 Z" id="Path"></path>
                    <polygon id="Path" points="256.29275 14 256.29275 16.5509434 240.74829 40.1132075 257 40.1132075 257 50 224 50 224 47.4641509 238.777018 23.8867925 224.70725 23.8867925 224.70725 14"></polygon>
                    <path d="M279.063704,13 C280.924106,13 282.754621,13.4077554 284.547778,14.215854 C286.340936,15.0276592 287.820291,16.0544625 288.985843,17.2999715 L288.985843,14.0379242 L301,14.0379242 L301,49.4014827 L288.985843,49.4014827 L288.985843,43.5149701 C288.096737,45.4536643 286.744396,47.0958079 284.921353,48.437696 C283.105781,49.7721699 280.920369,50.4394069 278.361384,50.4394069 C275.709005,50.4394069 273.220999,49.7721699 270.889894,48.437696 C268.558789,47.0958079 266.66103,45.0236672 265.196618,42.2249786 C263.732206,39.4299976 263,35.9047621 263,31.6529798 C263,27.679213 263.732206,24.3096666 265.196618,21.540633 C266.66103,18.7641862 268.61109,16.647562 271.054267,15.1944682 C273.504915,13.7339602 276.172238,13 279.063704,13 Z M281.574125,24.6544055 C279.848211,24.6544055 278.413685,25.3475908 277.270547,26.7302538 C276.13488,28.1166234 275.567047,29.7550613 275.567047,31.6529798 C275.567047,33.5508982 276.149823,35.1485603 277.315376,36.4422583 C278.480928,37.739664 280.020055,38.3846593 281.932757,38.3846593 C282.956351,38.3846593 284.00236,38.1177645 285.070783,37.5839749 C286.146677,37.0501853 287.06567,36.2420868 287.835234,35.1522669 C288.601061,34.0661536 288.985843,32.6686631 288.985843,30.9560878 L288.985843,27.5605931 C287.958513,26.7302538 286.804168,26.0407751 285.519072,25.4847448 C284.241448,24.9324211 282.926465,24.6544055 281.574125,24.6544055 Z M289.493905,49.3273453 L299.281557,49.3273453 C297.226897,49.7907041 295.478569,50.5654401 294.036571,51.6552609 C292.590837,52.7413742 291.869839,53.6755059 291.869839,54.4576561 C291.869839,55.1990305 292.097719,55.7847158 292.557216,56.2221272 C293.024184,56.6669518 293.63311,56.8893641 294.38026,56.8893641 C295.175973,56.8893641 295.874558,56.7596234 296.472277,56.5038494 C297.077467,56.2554888 297.641565,55.9700599 298.160834,55.6438551 L298.160834,63.4727687 C297.69013,63.7100086 296.733779,64.0213858 295.291781,64.4069005 C293.846048,64.7998284 292.146283,65 290.196225,65 C288.791585,65 287.40936,64.7405185 286.057019,64.2289706 C284.712151,63.724836 283.583956,62.9612199 282.679906,61.9455375 C281.772119,60.9261475 281.320094,59.6546911 281.320094,58.1348731 C281.320094,56.5112637 281.72729,55.0989447 282.545419,53.8942116 C283.359811,52.6968917 284.398348,51.7182775 285.653559,50.958369 C286.908769,50.1947538 288.186395,49.65355 289.493905,49.3273453 Z" id="Shape"></path>
                    <path d="M346,0 L346,49.9613035 L333.985843,49.9613035 L333.985843,44.0704102 C333.096737,46.0105472 331.744396,47.6539128 329.921353,48.9967995 C328.105781,50.3322665 325.920369,51 323.361384,51 C320.709005,51 318.220999,50.3322665 315.889894,48.9967995 C313.558789,47.6539128 311.66103,45.5802301 310.196618,42.7794588 C308.732206,39.9823979 308,36.4545391 308,32.1995927 C308,28.2228688 308.732206,24.8508149 310.196618,22.0797207 C311.66103,19.3012077 313.61109,17.1830084 316.054267,15.7288333 C318.504915,14.2672384 321.172238,13.532732 324.063704,13.532732 C325.924106,13.532732 327.754621,13.9407909 329.547778,14.7494908 C331.340936,15.5619002 332.820291,16.5894676 333.985843,17.8359034 L333.985843,0 L346,0 Z M326.574125,25.1958103 C324.848211,25.1958103 323.413685,25.8895114 322.270547,27.2732034 C321.13488,28.6606047 320.567047,30.3002619 320.567047,32.1995927 C320.567047,34.0989235 321.149823,35.6977745 322.315376,36.9924353 C323.480928,38.2908064 325.020055,38.9362816 326.932757,38.9362816 C327.956351,38.9362816 329.00236,38.6691882 330.070783,38.1350015 C331.146677,37.6008147 332.06567,36.7921147 332.835234,35.7014839 C333.601061,34.6145624 333.985843,33.2160319 333.985843,31.5021821 L333.985843,28.1041606 C332.958513,27.2732034 331.804168,26.5832116 330.519072,26.0267675 C329.241448,25.4740328 327.926465,25.1958103 326.574125,25.1958103 Z" id="Shape"></path>
                    <path d="M389,14 L389,35.5670061 C389,38.8148681 388.262489,41.5879842 386.794917,43.8863544 C385.334794,46.1884931 383.327125,47.9518332 380.775635,49.1763747 C378.22042,50.3896135 375.29645,51 372,51 C368.699825,51 365.775854,50.3896135 363.224365,49.1763747 C360.669149,47.9518332 358.657757,46.1884931 357.190184,43.8863544 C355.730061,41.5879842 355,38.8148681 355,35.5670061 L355,14 L366.978966,14 L367.053462,32.3266802 C367.053462,34.7682281 367.433391,36.5579432 368.200701,37.692057 C368.964285,38.8186357 370.230718,39.3800407 372,39.3800407 C373.758107,39.3800407 375.017091,38.8186357 375.7844,37.692057 C376.559159,36.5579432 376.946538,34.7682281 376.946538,32.3266802 L377.006135,14 L389,14 Z" id="Path"></path>
                </g>
                <g id="Group-11" transform="translate(0.000000, 75.000000)">
                    <path d="M32.1869596,4 C37.1899972,4 42.1332087,4.62023462 47.0091143,5.85323258 C51.8850199,7.07875735 55.8074314,8.70780856 58.7800888,10.7403862 L58.7800888,33.7563392 C55.130638,31.634089 51.5260575,29.7920657 47.9663473,28.2265323 C44.4066371,26.6535267 40.2075249,25.8651553 35.3727506,25.8651553 C32.5683576,25.8651553 30.1528394,26.2948365 28.1187193,27.1504618 C26.0845992,27.9986148 25.0675391,29.3922754 25.0675391,31.3351805 C25.0675391,33.4574307 26.2939939,35.052855 28.7469035,36.1177162 C31.2072909,37.1751052 34.2210797,38.3819484 37.7807899,39.7345088 L46.9492872,43.1570109 C53.1413882,45.5295972 57.5274594,48.7540727 60.1112409,52.8267003 C62.7025003,56.8918556 64,60.9570109 64,65.0221662 C64,70.4548284 62.4295396,75.2672549 59.2886188,79.4594458 C56.1476981,83.6553739 51.9037156,86.9620487 46.5604113,89.3832074 C41.2245849,91.7931568 35.2456177,93 28.6272494,93 C23.5419491,93 18.4940402,92.1070107 13.4910026,90.3247691 C8.48422505,88.5425275 4.11684949,86.3418131 0.388875906,83.7188917 L0.388875906,60.7029387 C4.45711615,63.7518052 8.84318742,66.2551632 13.5508296,68.2055416 C18.2547319,70.159656 22.9885487,71.1348447 27.7448002,71.1348447 C30.7062398,71.1348447 33.0993223,70.7761545 34.9240477,70.0587741 C36.7487731,69.3339206 37.6611358,68.078505 37.6611358,66.2925273 C37.6611358,65.0296385 36.9806025,63.9311503 35.6270157,63.004534 C34.2696889,62.0704445 32.4449635,61.2633916 30.1528394,60.5833753 L18.0677728,56.7573468 C13.3189993,55.2329135 9.63215705,53.1629718 6.9997663,50.5400504 C4.36737556,47.9096558 2.54265015,44.9654072 1.52559009,41.7073048 C0.50853003,38.4417301 0,35.1126367 0,31.7237615 C0,25.7082289 1.52559009,20.6454662 4.57677027,16.5392107 C7.63542836,12.425483 11.6251458,9.30562552 16.5421828,7.18337531 C21.4554798,5.0611251 26.671652,4 32.1869596,4 Z" id="Path"></path>
                    <path d="M105.412877,7 L105.412877,26.1111111 L122.246899,26.1111111 L122.246899,43.3051202 L105.412877,43.3051202 L105.412877,61.532567 C105.412877,64.6703234 106.055227,67.149077 107.347312,68.9763149 C108.646781,70.8035528 110.470467,71.7171717 112.825753,71.7171717 C116.506349,71.7171717 119.898996,70.7848313 123,68.9164054 L123,85.9905956 C121.648848,87.8590215 119.53352,89.4952978 116.650325,90.9031696 C113.763437,92.2998082 110.226816,93 106.033077,93 C102.016539,93 98.3322509,92.0639155 94.987596,90.1992337 C91.6392496,88.3233196 88.936946,85.6461163 86.8806852,82.1713689 C84.8318072,78.6891322 83.8092144,74.4842392 83.8092144,69.5604319 L83.8092144,43.3051202 L73,43.3051202 L73,29.9303379 C77.1051388,28.8332465 81.143828,26.4368689 85.1234495,22.7412052 C89.0993796,19.0492855 92.0084168,13.7997214 93.8505611,7 L105.412877,7 Z" id="Path"></path>
                    <path d="M199,26 L199,65.0508285 C199,70.9242046 197.663213,75.9424541 194.997109,80.1130766 C192.32727,84.2761975 188.664177,87.4641738 184.004095,89.6845052 C179.344013,91.8935846 174.004336,93 167.992532,93 C161.976993,93 156.64105,91.8935846 151.980968,89.6845052 C147.328354,87.4641738 143.668996,84.2761975 141.002891,80.1130766 C138.333052,75.9424541 137,70.9242046 137,65.0508285 L137,26 L158.851602,26 L158.971091,59.184953 C158.971091,63.6068632 159.665622,66.8360949 161.062154,68.8763995 C162.466153,70.916704 164.773789,71.9368562 167.992532,71.9368562 C171.218742,71.9368562 173.526379,70.916704 174.92291,68.8763995 C176.315707,66.8360949 177.013973,63.6068632 177.013973,59.184953 L177.148398,26 L199,26 Z" id="Path"></path>
                    <path d="M281,0 L281,91.0959693 L259.183056,91.0959693 L259.183056,80.3411708 C257.572509,83.8814779 255.115679,86.8788383 251.816296,89.3258157 C248.524368,91.7727932 244.553923,93 239.901232,93 C235.077048,93 230.554841,91.7727932 226.330884,89.3258157 C222.103199,86.8788383 218.658418,83.1042469 215.996542,78.0057582 C213.330938,72.8998323 212,66.462572 212,58.6976967 C212,51.4497363 213.330938,45.2951056 215.996542,40.237524 C218.658418,35.1725043 222.207585,31.3086615 226.644046,28.6497121 C231.087962,25.9944822 235.927058,24.6631478 241.168792,24.6631478 C244.546466,24.6631478 247.864491,25.4031912 251.11541,26.8795585 C254.373785,28.3596444 257.065485,30.2376442 259.183056,32.5172745 L259.183056,0 L281,0 Z M245.732008,45.9198656 C242.607845,45.9198656 240.009347,47.1916982 237.932786,49.7279271 C235.86368,52.2567179 234.830992,55.2466411 234.830992,58.6976967 C234.830992,62.1599091 235.882322,65.0754561 237.992436,67.4443378 C240.110006,69.8057824 242.902366,70.9846449 246.373244,70.9846449 C248.229847,70.9846449 250.131187,70.5012001 252.069808,69.5268714 C254.015885,68.5562622 255.686082,67.0798949 257.080398,65.0940499 C258.48217,63.1119244 259.183056,60.5571017 259.183056,57.4333013 L259.183056,51.2452015 C257.322725,49.7279271 255.231251,48.4635317 252.904906,47.4520154 C250.578561,46.4330619 248.185109,45.9198656 245.732008,45.9198656 Z" id="Shape"></path>
                    <path d="M328.527916,25 C334.639582,25 340.069678,26.3469743 344.825692,29.0409229 C349.589197,31.7274701 353.307875,35.4797562 355.985474,40.3051807 C358.659328,45.1306051 360,50.8589465 360,57.4902046 L360,64.9207662 L315.7803,64.9207662 C316.716522,68.021767 318.585224,70.3308659 321.38266,71.8480627 C324.187585,73.3578581 327.419428,74.1127558 331.074444,74.1127558 C335.995234,74.1127558 340.260667,73.4244672 343.867,72.0404876 C347.480821,70.6491075 350.180889,69.4501524 351.970949,68.4436221 L351.970949,86.9460165 C349.761461,88.2892906 346.728098,89.6362649 342.863368,90.9869395 C338.998638,92.3265124 334.643327,93 329.80118,93 C325.217431,93 320.775988,92.2451023 316.48434,90.7353069 C312.188947,89.2181101 308.342942,87.0311278 304.950068,84.1780583 C301.55345,81.3286901 298.875852,77.8687421 296.921017,73.8019155 C294.973672,69.7276885 294,65.127993 294,60.0065303 C294,53.6343051 295.505447,47.8023504 298.523831,42.5106661 C301.53847,37.222682 305.657853,32.9856339 310.881979,29.7958206 C316.102361,26.5986069 321.985588,25 328.527916,25 Z M327.883795,42.880714 C325.086359,42.880714 322.663414,43.6171095 320.618702,45.0861994 C318.58148,46.5589895 317.098502,48.8014802 316.169768,51.821071 L339.223332,51.821071 C339.223332,48.8014802 338.054925,46.5589895 335.718112,45.0861994 C333.381298,43.6171095 330.767362,42.880714 327.883795,42.880714 Z" id="Shape"></path>
                    <path d="M393.627563,25.9202866 L393.627563,34.3365428 C395.645445,31.5386247 398.099427,29.1157635 400.989509,27.075459 C403.875894,25.0276529 407.457082,24 411.736767,24 C418.278255,24 423.626013,26.2578365 427.776347,30.7660099 C431.922985,35.2779335 434,41.9576803 434,50.8090013 L434,91 L412.372437,91 L412.23939,54.2445141 C412.23939,51.0152824 411.356104,48.7386923 409.593228,47.4184953 C407.837744,46.0982983 405.871602,45.4381997 403.694802,45.4381997 C401.347997,45.4381997 399.378159,46.0607922 397.781593,47.2984774 C396.192418,48.528661 394.810205,49.9951301 393.627563,51.6941335 L393.627563,91 L372,91 L372,25.9202866 L393.627563,25.9202866 Z" id="Path"></path>
                    <path d="M480.412877,7 L480.412877,26.1111111 L497.246899,26.1111111 L497.246899,43.3051202 L480.412877,43.3051202 L480.412877,61.532567 C480.412877,64.6703234 481.055227,67.149077 482.347312,68.9763149 C483.646781,70.8035528 485.470467,71.7171717 487.825753,71.7171717 C491.506349,71.7171717 494.898996,70.7848313 498,68.9164054 L498,85.9905956 C496.648848,87.8590215 494.53352,89.4952978 491.650325,90.9031696 C488.763437,92.2998082 485.226816,93 481.033077,93 C477.016539,93 473.332251,92.0639155 469.987596,90.1992337 C466.63925,88.3233196 463.936946,85.6461163 461.880685,82.1713689 C459.831807,78.6891322 458.809214,74.4842392 458.809214,69.5604319 L458.809214,43.3051202 L448,43.3051202 L448,29.9303379 C452.105139,28.8332465 456.143828,26.4368689 460.123449,22.7412052 C464.09938,19.0492855 467.008417,13.7997214 468.850561,7 L480.412877,7 Z" id="Path"></path>
                    <path d="M543.492547,24.466191 C547.971972,24.466191 552.324691,25.3165234 556.550703,27.0171883 C560.78417,28.7103936 564.589072,31.0749149 567.969137,34.1182098 C571.345476,37.1615048 574.028659,40.7791476 576.018686,44.9636776 C578.004986,49.151938 579,53.7429864 579,58.7330955 C579,63.7269339 578.004986,68.3179833 576.018686,72.5025134 C574.028659,76.6907737 571.345476,80.3046862 567.969137,83.3479812 C564.589072,86.3912761 560.78417,88.763256 556.550703,90.4639209 C552.324691,92.1533969 547.971972,93 543.492547,93 C539.020575,93 534.667856,92.1533969 530.43439,90.4639209 C526.208378,88.763256 522.403474,86.3912761 519.015956,83.3479812 C515.635891,80.3046862 512.952708,76.6907737 510.966408,72.5025134 C508.98756,68.3179833 508,63.7269339 508,58.7330955 C508,53.7429864 508.98756,49.151938 510.966408,44.9636776 C512.952708,40.7791476 515.635891,37.1615048 519.015956,34.1182098 C522.403474,31.0749149 526.208378,28.7103936 530.43439,27.0171883 C534.667856,25.3165234 539.020575,24.466191 543.492547,24.466191 Z M543.492547,45.411221 C541.972076,45.411221 540.257821,45.7506083 538.34978,46.4256527 C536.449191,47.1044273 534.824376,48.3948435 533.475331,50.3043619 C532.122559,52.2064218 531.448037,55.0147562 531.448037,58.7330955 C531.448037,62.373115 532.122559,65.1702606 533.475331,67.1170748 C534.824376,69.0564294 536.449191,70.365494 538.34978,71.0405383 C540.257821,71.7193129 541.972076,72.05497 543.492547,72.05497 C545.102456,72.05497 546.835345,71.7193129 548.69494,71.0405383 C550.550808,70.365494 552.156991,69.0564294 553.509763,67.1170748 C554.858808,65.1702606 555.537056,62.373115 555.537056,58.7330955 C555.537056,55.0147562 554.858808,52.2064218 553.509763,50.3043619 C552.156991,48.3948435 550.550808,47.1044273 548.69494,46.4256527 C546.835345,45.7506083 545.102456,45.411221 543.492547,45.411221 Z M564.987823,1 L548.247743,20.0355116 L532.774722,20.0355116 L545.460214,1 L564.987823,1 Z" id="Shape"></path>
                    <polygon id="Path" points="687 26 664.861621 91 648.019789 91 635.492561 52.6413094 622.965333 91 605.885454 91 584 26 606.525206 26 616.017334 57.6009682 626.89311 26 644.10689 26 654.982666 57.6009682 664.474794 26"></polygon>
                </g>
                <g id="Group-12" transform="translate(727.000000, 79.000000)">
                    <path d="M50.9204676,1 L90,87 L62.5242878,87 L58.3599539,75.6106501 L31.6400461,75.6106501 L27.4757122,87 L0,87 L39.0795324,1 L50.9204676,1 Z M45.0074098,39.1974412 L38.5756628,56.6531812 L51.4243372,56.6531812 L45.0074098,39.1974412 Z" id="Shape"></path>
                    <path d="M152.734326,41.4436608 L173,41.4436608 L173,75.7732997 C169.028017,79.9281276 164.445533,83.1712846 159.25627,85.5027708 C154.063283,87.8342569 148.300744,89 141.968652,89 C136.221003,89 130.666928,88.0023927 125.306426,86.0109152 C119.945925,84.0194377 115.128919,81.1162884 110.862853,77.297733 C106.604232,73.4829138 103.22786,68.8236776 100.737461,63.3237615 C98.243339,57.8163733 97,51.5430313 97,44.5074727 C97,37.4756502 98.243339,31.2023092 100.737461,25.6911839 C103.22786,20.1837956 106.604232,15.5208233 110.862853,11.702267 C115.128919,7.88744776 119.945925,4.98429843 125.306426,2.9890848 C130.666928,0.997607292 136.221003,0 141.968652,0 C146.443181,0 150.578957,0.638917116 154.372257,1.91301427 C158.173001,3.19084755 161.508425,5.05155332 164.378527,7.50260285 L164.378527,30.5185558 C161.002155,27.809698 157.797022,25.7584378 154.759404,24.3610411 C151.721787,22.9561713 147.749804,22.2537364 142.847179,22.2537364 C139.053879,22.2537364 135.528605,23.2326621 132.275078,25.1830395 C129.028997,27.1259446 126.385972,29.7712846 124.353448,33.1190596 C122.32837,36.4668346 121.315831,40.2629723 121.315831,44.5074727 C121.315831,48.7444999 122.32837,52.5331654 124.353448,55.8809404 C126.385972,59.2287154 129.028997,61.8815286 132.275078,63.831906 C135.528605,65.7748111 139.053879,66.7462636 142.847179,66.7462636 C144.790361,66.7462636 146.606975,66.5594454 148.297022,66.1783375 C149.983346,65.8009658 151.416536,65.3115029 152.600313,64.713686 L152.734326,41.4436608 Z" id="Path"></path>
                    <polygon id="Path" points="216.749521 2 216.749521 35.6181786 247.250479 35.6181786 247.250479 2 271 2 271 87 247.250479 87 247.250479 56.5586945 216.749521 56.5586945 216.749521 87 193 87 193 2"></polygon>
                </g>
            </g>
        </g>
    </g>
</svg>