<?xml version="1.0" encoding="UTF-8"?>
<svg width="1208px" height="485px" viewBox="0 0 1208 485" version="1.1" xmlns="http://www.w3.org/2000/svg" xmlns:xlink="http://www.w3.org/1999/xlink">
    <title>LogoURSS__skrocone_green</title>
    <defs>
        <linearGradient x1="25.3092368%" y1="47.4707726%" x2="64.3445772%" y2="46.3325359%" id="linearGradient-1">
            <stop stop-color="#009758" offset="0%"></stop>
            <stop stop-color="#02BE6F" offset="100%"></stop>
        </linearGradient>
        <linearGradient x1="43.051893%" y1="0%" x2="50%" y2="85.0021384%" id="linearGradient-2">
            <stop stop-color="#02BE6F" offset="0%"></stop>
            <stop stop-color="#009758" offset="100%"></stop>
        </linearGradient>
    </defs>
    <g id="Page-1" stroke="none" stroke-width="1" fill="none" fill-rule="evenodd">
        <g id="LogoURSS__skrocone_green" fill-rule="nonzero">
            <g id="Group-3">
                <g id="Group-2" transform="translate(89.000000, 16.000000)">
                    <path d="M107.002053,3.44043174 C166.869824,-9.42100056 229.710606,17.0255164 266.120424,29.4354982 C285.60149,36.0754567 304.708152,44.3056911 323.440409,54.1262019 L347.073699,64.1376573 C349.356063,66.0099042 350.770455,68.7420032 350.98604,71.6948936 C351.129761,73.6634872 350.163785,85.270058 348.08811,106.514606 C338.151252,197.504792 234.056377,166.047296 242.514804,117.176997 C230.033996,111.599992 216.686906,106.421144 202.473376,101.642183 C146.343165,82.7697348 91.3750045,75.0674644 37.5688958,78.5353716 C43.9458194,37.0463667 67.0902043,12.0147201 107.002053,3.44043174 Z" id="Combined-Shape-path" fill="url(#linearGradient-1)"></path>
                    <path d="M323.440409,54.1262019 L347.073699,64.1376573 C349.356063,66.0099042 350.770455,68.7420032 350.98604,71.6948936 C351.129761,73.6634872 350.163785,85.270058 348.08811,106.514606 C338.151252,197.504792 313.16487,273.04709 273.128963,333.141502 C213.604243,422.48887 95.3252988,461.908649 77.8247454,468.15184 C72.2427304,470.083468 66.0582594,468.656542 61.8884637,464.474905 C46.0529478,448.226051 25.4234602,422.591334 0,387.570753 C88.31363,362.648952 151.417817,323.334666 189.312561,269.627894 C219.871285,226.318185 234.056377,166.047296 242.514804,117.176997 C230.033996,111.599992 304.708152,44.3056911 323.440409,54.1262019 Z" id="Combined-Shape-path" fill="#02BE6F"></path>
                </g>
                <path d="M43.6844398,0 L143.968977,5.1738315 C111.871146,92.7842086 97.4873907,161.174363 100.817712,210.344294 C105.667438,281.947206 136.394867,326.265249 193,343.298422 C123.637427,378.580343 76.6025546,385.312862 51.8953833,363.495984 C14.8346263,330.770666 2.25170561,265.659327 0.472715331,223.331379 C-1.74733773,170.50912 3.8522767,117.046257 17.2715585,62.9427896 C29.0752869,25.7626706 35.5185385,6.34679985 36.601313,4.69517716 C38.225475,2.21774313 40.7867219,0.519974952 43.6844398,0 Z" id="Combined-Shape-path" fill="url(#linearGradient-2)"></path>
            </g>
            <g id="Group-6" transform="translate(495.000000, 0.000000)" fill="#05CE79">
                <g id="Group-5">
                    <path d="M173,4 L173,120.108785 C173,136.656044 169.097559,150.926421 161.300861,162.915825 C153.500071,174.897055 143.077201,184.07408 130.032252,190.450989 C116.995484,196.815633 102.486097,200 86.5081812,200 C70.7020713,200 56.2294991,196.815633 43.0986475,190.450989 C29.9759765,184.07408 19.50811,174.897055 11.6991393,162.915825 C3.89834931,150.926421 0,136.656044 0,120.108785 L0,4 L53.3906176,4 L53.3906176,116.397097 C53.3906176,126.297655 56.0495134,134.432302 61.3754847,140.80921 C66.7096378,147.177943 75.0872033,150.260115 86.5081812,150.063903 C97.9291592,149.879954 106.298543,146.695587 111.624515,140.514891 C116.958668,134.334195 119.625745,126.297655 119.625745,116.397097 L119.625745,4 L173,4 Z" id="Path"></path>
                    <path d="M294.6548,4 C304.327665,4 313.76411,5.33160873 322.960058,7.98665526 C332.156006,10.6457873 340.447033,14.730475 347.841293,20.2407186 C355.243705,25.7550476 361.170526,32.6908469 365.629908,41.0562874 C370.085214,49.421728 372.314906,59.2086399 372.314906,70.4170231 C372.314906,84.6766684 368.279451,96.4609923 360.216691,105.77408 C352.162084,115.087169 341.877786,121.455197 329.367873,124.87408 L382,195 L317.122914,195 L266.202798,119.171856 L266.202798,195 L213,195 L213,4 L294.6548,4 Z M266.202798,53.882207 L266.202798,89.5170231 C269.431163,90.6607357 272.891871,91.6165521 276.589001,92.3763045 C280.282054,93.1278871 284.219682,93.5036784 288.393729,93.5036784 C296.741823,93.5036784 303.70808,91.8452946 309.296575,88.5203593 C314.893222,85.1995084 317.693584,80.1181568 317.693584,73.2763045 C317.693584,65.4786358 314.893222,60.2992518 309.296575,57.7381523 C303.70808,55.1688839 296.741823,53.882207 288.393729,53.882207 L266.202798,53.882207 Z" id="Shape"></path>
                    <path d="M477.923655,0 C489.109788,0 500.153344,1.38365757 511.050251,4.14278697 C521.943084,6.90600976 530.709492,10.5739318 537.349476,15.1465531 L537.349476,66.8577043 C529.202256,62.1008673 521.144655,57.9580814 513.184822,54.4293434 C505.220915,50.9046998 495.839392,49.1403308 485.044325,49.1403308 C478.787261,49.1403308 473.38158,50.0982484 468.831358,52.0058949 C464.277062,53.9053545 462.003988,57.0451943 462.003988,61.4213198 C462.003988,66.1945303 464.749602,69.7682989 470.248974,72.1467169 C475.744274,74.5292293 482.473877,77.2392337 490.437785,80.2849189 L510.903601,87.9973801 C524.741653,93.3355166 534.550906,100.5813 540.331358,109.726543 C546.107736,118.863599 549,128.000655 549,137.137711 C549,149.332733 545.488548,160.144097 538.473792,169.575897 C531.467183,178.999509 521.991966,186.425413 510.05629,191.861798 C498.116539,197.285901 484.755099,200 469.971969,200 C458.59845,200 447.314552,198.002292 436.128418,194.006877 C424.950433,190.003275 415.190064,185.045849 406.847311,179.138693 L406.847311,127.427542 C415.947755,134.284428 425.757007,139.905027 436.275068,144.293434 C446.801276,148.673654 457.36822,150.859669 467.984047,150.859669 C474.607736,150.859669 479.96046,150.053218 484.03407,148.436221 C488.115828,146.811037 490.160779,143.99869 490.160779,140.003275 C490.160779,137.145899 488.63725,134.665138 485.598336,132.569183 C482.567571,130.473227 478.493961,128.663829 473.377507,127.132798 L446.377621,118.568855 C435.753646,115.14246 427.500513,110.475684 421.626367,104.568528 C415.760369,98.6654664 411.686759,92.050107 409.405538,84.7224496 C407.132464,77.3866055 406,69.9115774 406,62.2891764 C406,48.7637138 409.409611,37.3833306 416.232908,28.1480269 C423.05213,18.9045353 431.961115,11.9002786 442.955789,7.13934829 C453.946387,2.3825124 465.605059,0 477.923655,0 Z" id="Path"></path>
                    <path d="M641.923655,0 C653.109788,0 664.153344,1.38365757 675.050251,4.14278697 C685.943084,6.90600976 694.709492,10.5739318 701.349476,15.1465531 L701.349476,66.8577043 C693.202256,62.1008673 685.144655,57.9580814 677.184822,54.4293434 C669.220915,50.9046998 659.839392,49.1403308 649.044325,49.1403308 C642.787261,49.1403308 637.38158,50.0982484 632.831358,52.0058949 C628.277062,53.9053545 626.003988,57.0451943 626.003988,61.4213198 C626.003988,66.1945303 628.749602,69.7682989 634.248974,72.1467169 C639.744274,74.5292293 646.473877,77.2392337 654.437785,80.2849189 L674.903601,87.9973801 C688.741653,93.3355166 698.550906,100.5813 704.331358,109.726543 C710.107736,118.863599 713,128.000655 713,137.137711 C713,149.332733 709.488548,160.144097 702.473792,169.575897 C695.467183,178.999509 685.991966,186.425413 674.05629,191.861798 C662.116539,197.285901 648.755099,200 633.971969,200 C622.59845,200 611.314552,198.002292 600.128418,194.006877 C588.950433,190.003275 579.190064,185.045849 570.847311,179.138693 L570.847311,127.427542 C579.947755,134.284428 589.757007,139.905027 600.275068,144.293434 C610.801276,148.673654 621.36822,150.859669 631.984047,150.859669 C638.607736,150.859669 643.96046,150.053218 648.03407,148.436221 C652.115828,146.811037 654.160779,143.99869 654.160779,140.003275 C654.160779,137.145899 652.63725,134.665138 649.598336,132.569183 C646.567571,130.473227 642.493961,128.663829 637.377507,127.132798 L610.377621,118.568855 C599.753646,115.14246 591.500513,110.475684 585.626367,104.568528 C579.760369,98.6654664 575.686759,92.050107 573.405538,84.7224496 C571.132464,77.3866055 570,69.9115774 570,62.2891764 C570,48.7637138 573.409611,37.3833306 580.232908,28.1480269 C587.05213,18.9045353 595.961115,11.9002786 606.955789,7.13934829 C617.946387,2.3825124 629.605059,0 641.923655,0 Z" id="Path"></path>
                </g>
                <path d="M134.861244,246.669792 L238.336598,473.990625 L165.560567,473.990625 L154.559159,443.901637 L83.7937861,443.901637 L72.7760311,473.990625 L1.13686838e-13,473.990625 L103.475354,246.669792 L134.861244,246.669792 Z M119.168299,347.626697 L102.151262,393.75878 L136.201683,393.75878 L119.168299,347.626697 Z" id="Shape"></path>
                <path d="M401.903253,353.978452 L455.308305,353.978452 L455.308305,444.245418 C444.846342,455.160452 432.77013,463.685392 419.083758,469.816147 C405.393299,475.938716 390.207104,479 373.525178,479 C358.388025,479 343.749449,476.384812 329.617626,471.158528 C315.493976,465.919966 302.812932,458.287219 291.578582,448.256191 C280.340145,438.229258 271.439303,425.971842 264.867882,411.488037 C258.304636,396.996048 255.027098,380.498671 255.027098,362 C255.027098,343.501329 258.304636,327.012138 264.867882,312.528334 C271.439303,298.048621 280.340145,285.791206 291.578582,275.760179 C302.812932,265.733244 315.493976,258.096404 329.617626,252.857842 C343.749449,247.619281 358.388025,245 373.525178,245 C385.315319,245 396.218647,246.677976 406.235159,250.025745 C416.247585,253.365328 425.038086,258.268294 432.602576,264.726459 L432.602576,325.231846 C423.697647,318.106583 415.242256,312.704317 407.232315,309.025045 C399.222375,305.349867 388.764498,303.508185 375.862773,303.508185 C365.84626,303.508185 356.557181,306.074262 347.991449,311.202323 C339.425716,316.322198 332.466059,323.283755 327.116563,332.091087 C321.77524,340.890234 319.106622,350.859871 319.106622,362 C319.106622,373.144222 321.77524,383.117952 327.116563,391.925283 C332.466059,400.724429 339.425716,407.685987 347.991449,412.814048 C356.557181,417.946201 365.84626,420.508185 375.862773,420.508185 C380.971153,420.508185 385.752597,420.008884 390.198931,419.002099 C394.653439,417.999406 398.441814,416.718414 401.559969,415.15503 L401.903253,353.978452 Z" id="Path"></path>
                <polygon id="Path" points="569.455752 250.025745 569.455752 338.606548 649.571504 338.606548 649.571504 250.025745 712 250.025745 712 473.990625 649.571504 473.990625 649.571504 393.75878 569.455752 393.75878 569.455752 473.990625 507.043603 473.990625 507.043603 250.025745"></polygon>
            </g>
        </g>
    </g>
</svg>