<?xml version="1.0" encoding="UTF-8"?>
<svg width="1240px" height="257px" viewBox="0 0 1240 257" version="1.1" xmlns="http://www.w3.org/2000/svg" xmlns:xlink="http://www.w3.org/1999/xlink">
    <title>LogoURSS__skrocone2_green</title>
    <defs>
        <linearGradient x1="25.3092368%" y1="47.4542466%" x2="64.3445772%" y2="46.3085727%" id="linearGradient-1">
            <stop stop-color="#009758" offset="0%"></stop>
            <stop stop-color="#02BE6F" offset="100%"></stop>
        </linearGradient>
        <linearGradient x1="43.0717785%" y1="0%" x2="50%" y2="85.0021384%" id="linearGradient-2">
            <stop stop-color="#02BE6F" offset="0%"></stop>
            <stop stop-color="#009758" offset="100%"></stop>
        </linearGradient>
    </defs>
    <g id="Page-1" stroke="none" stroke-width="1" fill="none" fill-rule="evenodd">
        <g id="LogoURSS__skrocone2_green" fill-rule="nonzero">
            <g id="Group-3">
                <g id="Group-2" transform="translate(48.000000, 9.000000)">
                    <path d="M56.3970933,1.81924749 C87.951332,-4.98168047 121.072542,9.0028317 140.262902,15.5650396 C150.5307,19.0761477 160.601163,23.4281693 170.47429,28.6211046 L182.930582,33.9150085 C184.133538,34.905024 184.879015,36.349716 184.992642,37.9111591 C185.068392,38.9521211 184.55926,45.0894976 183.465243,56.3232887 C178.227868,104.437502 123.363048,87.8032612 127.821193,61.961397 C121.24299,59.0123624 114.208198,56.2738672 106.716737,53.7468258 C77.1324374,43.7673651 48.1606149,39.6945227 19.8012699,41.5282989 C23.1623265,19.58955 35.3609339,6.35319953 56.3970933,1.81924749 Z" id="Combined-Shape-path" fill="url(#linearGradient-1)"></path>
                    <path d="M170.47429,28.6211046 L182.930582,33.9150085 C184.133538,34.905024 184.879015,36.349716 184.992642,37.9111591 C185.068392,38.9521211 184.55926,45.0894976 183.465243,56.3232887 C178.227868,104.437502 165.058407,144.383109 143.956861,176.160112 C112.583433,223.405629 50.2426789,244.250203 41.0187404,247.551506 C38.0766528,248.572921 34.8170313,247.818384 32.6192757,245.607199 C24.2729212,237.015055 13.3998294,223.45981 0,204.941464 C46.5470699,191.763199 79.8071115,170.974408 99.7801249,142.575091 C115.886575,119.673582 123.363048,87.8032612 127.821193,61.961397 C121.24299,59.0123624 160.601163,23.4281693 170.47429,28.6211046 Z" id="Combined-Shape-path" fill="#02BE6F"></path>
                </g>
                <path d="M23.0871133,0 L76.0872312,2.73827784 C59.1236106,49.1065359 51.5218334,85.3023888 53.2818995,111.325837 C55.844967,149.222058 72.0843339,172.677618 102,181.692516 C65.3420598,200.36566 40.4842517,203.928882 27.4265756,192.382183 C7.84006156,175.062134 1.19002058,140.601612 0.249828828,118.19932 C-0.923463466,90.2428585 2.03591826,61.9473539 9.12797395,33.3128062 C15.3662138,13.6350305 18.7714556,3.35907758 19.3436991,2.48494749 C20.2020645,1.17375235 21.5556769,0.275199509 23.0871133,0 Z" id="Combined-Shape-path" fill="url(#linearGradient-2)"></path>
            </g>
            <g id="Group-16" transform="translate(263.000000, 29.000000)" fill="#05CE79">
                <g id="Group-14">
                    <path d="M71.3874781,3.73060283 C79.8317877,3.73060283 88.0794269,4.89327896 96.1262103,7.21026824 C104.168808,9.53143955 111.424723,13.0947508 117.885582,17.9002019 C124.35481,22.7098361 129.539399,28.7574272 133.435164,36.0513412 C137.326745,43.3368901 139.276719,51.8687621 139.276719,61.646957 C139.276719,74.0725414 135.74919,84.344246 128.698316,92.462071 C121.655812,100.584078 112.663333,106.138159 101.716695,109.124315 L147.729398,170.269397 L91.0211268,170.269397 L46.5148421,104.155754 L46.5148421,170.269397 L0,170.269397 L0,3.73060283 L71.3874781,3.73060283 Z M46.5148421,47.2264205 L46.5148421,78.2924719 C49.3268225,79.2962215 52.3480271,80.1284975 55.5868265,80.7851168 C58.8214405,81.4459181 62.2652799,81.7721373 65.9141592,81.7721373 C73.2119178,81.7721373 79.3045419,80.3250654 84.1920316,77.4225555 C89.0795213,74.5242287 91.5232662,70.0910011 91.5232662,64.1228728 C91.5232662,57.3308336 89.0795213,52.8223253 84.1920316,50.5889818 C79.3045419,48.3472743 73.2119178,47.2264205 65.9141592,47.2264205 L46.5148421,47.2264205 Z" id="Shape"></path>
                    <path d="M224.334433,0 C234.109413,0 243.758857,1.20449957 253.291136,3.6134987 C262.831784,6.01413379 270.501962,9.19685634 276.305856,13.1658494 L276.305856,58.1672916 C269.175478,54.0184598 262.128789,50.4175082 255.16579,47.3602538 C248.202791,44.2946354 239.992813,42.7597346 230.544223,42.7597346 C225.075089,42.7597346 220.350794,43.5920107 216.367156,45.2523796 C212.383517,46.9043845 210.391697,49.6354197 210.391697,53.4496683 C210.391697,57.590135 212.793597,60.6933949 217.605766,62.7678108 C222.41375,64.8338627 228.301334,67.1926732 235.264333,69.8442457 L253.17397,76.5526392 C265.279713,81.1949818 273.862112,87.4935102 278.916981,95.4565907 C283.97185,103.411307 286.499285,111.36184 286.499285,119.312374 C286.499285,129.918662 283.427866,139.328814 277.293397,147.534468 C271.167297,155.731757 262.873628,162.197578 252.420761,166.923565 C241.976263,171.641188 230.284785,174 217.354696,174 C207.412337,174 197.545299,172.260167 187.76195,168.780502 C177.986971,165.300836 169.450602,160.993078 162.152843,155.848861 L162.152843,110.864148 C170.107567,116.832276 178.681596,121.721373 187.879116,125.535622 C197.085004,129.341506 206.328553,131.240265 215.613946,131.240265 C221.426209,131.240265 226.112843,130.537641 229.673848,129.132391 C233.230669,127.727142 235.013264,125.284684 235.013264,121.805019 C235.013264,119.320738 233.682594,117.166859 231.029625,115.347563 C228.385024,113.519902 224.824019,111.943179 220.350794,110.61321 L196.716769,103.152005 C187.431375,100.174214 180.217306,96.1215751 175.074563,90.9899048 C169.940187,85.8498705 166.374998,80.0908572 164.378994,73.7086819 C162.391359,67.3181425 161.399634,60.810499 161.399634,54.1857514 C161.399634,42.4209694 164.383179,32.5214883 170.354453,24.4914912 C176.321543,16.45313 184.117255,10.3637156 193.737409,6.22324776 C203.353377,2.07441592 213.555175,0 224.334433,0 Z" id="Path"></path>
                    <path d="M366.835148,0 C376.610127,0 386.259571,1.20449957 395.791851,3.6134987 C405.332498,6.01413379 413.002677,9.19685634 418.806571,13.1658494 L418.806571,58.1672916 C411.676192,54.0184598 404.629503,50.4175082 397.666504,47.3602538 C390.703505,44.2946354 382.493527,42.7597346 373.044938,42.7597346 C367.575803,42.7597346 362.851509,43.5920107 358.86787,45.2523796 C354.884231,46.9043845 352.892412,49.6354197 352.892412,53.4496683 C352.892412,57.590135 355.294311,60.6933949 360.106481,62.7678108 C364.914465,64.8338627 370.802049,67.1926732 377.765048,69.8442457 L395.674685,76.5526392 C407.780428,81.1949818 416.362826,87.4935102 421.417696,95.4565907 C426.472565,103.411307 429,111.36184 429,119.312374 C429,129.918662 425.92858,139.328814 419.794112,147.534468 C413.668012,155.731757 405.374343,162.197578 394.921476,166.923565 C384.476977,171.641188 372.7855,174 359.855411,174 C349.913052,174 340.046014,172.260167 330.262665,168.780502 C320.487686,165.300836 311.951317,160.993078 304.653558,155.848861 L304.653558,110.864148 C312.608282,116.832276 321.182311,121.721373 330.379831,125.535622 C339.585719,129.341506 348.829267,131.240265 358.114661,131.240265 C363.926924,131.240265 368.613558,130.537641 372.174563,129.132391 C375.731384,127.727142 377.513978,125.284684 377.513978,121.805019 C377.513978,119.320738 376.183308,117.166859 373.530339,115.347563 C370.885739,113.519902 367.324734,111.943179 362.851509,110.61321 L339.217484,103.152005 C329.93209,100.174214 322.718021,96.1215751 317.575277,90.9899048 C312.440902,85.8498705 308.875713,80.0908572 306.879709,73.7086819 C304.892074,67.3181425 303.900349,60.810499 303.900349,54.1857514 C303.900349,42.4209694 306.883893,32.5214883 312.855167,24.4914912 C318.822257,16.45313 326.61797,10.3637156 336.238123,6.22324776 C345.854091,2.07441592 356.05589,0 366.835148,0 Z" id="Path"></path>
                </g>
                <g id="Group-15" transform="translate(489.000000, 0.000000)">
                    <path d="M100.712293,1 L178,170 L123.650264,170 L115.428167,147.637272 L62.5718326,147.637272 L54.349736,170 L0,170 L77.2877074,1 L100.712293,1 Z M89,76.0665083 L76.2809201,110.354909 L101.71908,110.354909 L89,76.0665083 Z" id="Shape"></path>
                    <path d="M278.272238,81.0360542 L318,81.0360542 L318,148.153447 C310.219911,156.275455 301.240633,162.615806 291.057992,167.174502 C280.871173,171.724834 269.572911,174 257.163208,174 C245.906731,174 235.022125,172.051052 224.505216,168.161523 C213.996663,164.271994 204.557768,158.592443 196.192709,151.131237 C187.836007,143.670032 181.209141,134.561004 176.320471,123.795789 C171.440157,113.022209 169,100.755553 169,86.9916354 C169,73.2402654 171.440157,60.9861557 176.320471,50.2209403 C181.209141,39.4473608 187.836007,30.3299683 196.192709,22.8687626 C204.557768,15.407557 213.996663,9.73218948 224.505216,5.83847707 C235.022125,1.94894668 245.906731,0 257.163208,0 C265.941923,0 274.052104,1.24632193 281.497925,3.73060283 C288.952103,6.21906574 295.491222,9.86602277 301.119462,14.6714739 L301.119462,59.6561869 C294.500953,54.3614081 288.208356,50.3464095 282.250028,47.6111912 C276.287521,44.8676089 268.503253,43.4958177 258.901402,43.4958177 C251.447224,43.4958177 244.532052,45.402942 238.160067,49.2171907 C231.783903,53.0314393 226.611105,58.2132971 222.633315,64.7585809 C218.663882,71.3080468 216.683343,78.719066 216.683343,86.9916354 C216.683343,95.2809351 218.663882,102.696135 222.633315,109.241419 C226.611105,115.790886 231.783903,120.968561 238.160067,124.782809 C244.532052,128.597058 251.447224,130.504182 258.901402,130.504182 C262.712058,130.504182 266.272013,130.131959 269.581268,129.383329 C272.890522,128.638881 275.702552,127.685318 278.021537,126.522642 L278.272238,81.0360542 Z" id="Path"></path>
                    <polygon id="Path" points="381.606051 4 381.606051 70.045103 441.41072 70.045103 441.41072 4 488 4 488 171 441.41072 171 441.41072 111.178604 381.606051 111.178604 381.606051 171 335 171 335 4"></polygon>
                </g>
            </g>
        </g>
    </g>
</svg>