<?xml version="1.0" encoding="UTF-8"?>
<svg width="1224px" height="1349px" viewBox="0 0 1224 1349" version="1.1" xmlns="http://www.w3.org/2000/svg" xmlns:xlink="http://www.w3.org/1999/xlink">
    <title>LogoURSS_tarcza_white</title>
    <defs>
        <linearGradient x1="0%" y1="49.0386345%" x2="60.9245703%" y2="45.4364632%" id="linearGradient-1">
            <stop stop-color="#FFFFFF" stop-opacity="0" offset="0%"></stop>
            <stop stop-color="#FFFFFF" offset="100%"></stop>
        </linearGradient>
        <linearGradient x1="43.9096997%" y1="71.720279%" x2="73.286756%" y2="127.188476%" id="linearGradient-2">
            <stop stop-color="#FFFFFF" offset="0%"></stop>
            <stop stop-color="#FFFFFF" stop-opacity="0" offset="100%"></stop>
        </linearGradient>
    </defs>
    <g id="Page-1" stroke="none" stroke-width="1" fill="none" fill-rule="evenodd">
        <g id="LogoURSS_tarcza_white" fill-rule="nonzero">
            <g id="Group-2" transform="translate(249.238783, 45.038357)">
                <path d="M297.155131,9.56543929 C463.41377,-26.1932268 637.928746,47.3360775 739.042361,81.8395748 C793.143179,100.300665 846.204242,123.183202 898.225547,150.487188 L963.857496,178.322057 C970.195845,183.527469 974.123749,191.12353 974.722448,199.333457 C975.121575,204.806741 972.438967,237.076514 966.674614,296.142774 C939.078993,549.12297 649.997376,461.661632 673.487253,325.78744 C638.826833,310.281682 601.760662,295.882921 562.288303,282.595965 C406.409235,230.12486 253.757295,208.710222 104.332486,218.352052 C122.041825,103.000088 186.316038,33.4045504 297.155131,9.56543929 Z" id="Combined-Shape-path" fill="url(#linearGradient-1)"></path>
                <path d="M898.225547,150.487188 L963.857496,178.322057 C970.195845,183.527469 974.123749,191.12353 974.722448,199.333457 C975.121575,204.806741 972.438967,237.076514 966.674614,296.142774 C939.078993,549.12297 869.689372,759.153373 758.505756,926.233986 C593.199805,1174.64665 264.727648,1284.24555 216.126905,1301.6035 C200.625105,1306.97401 183.450226,1303.00672 171.870297,1291.38051 C127.893526,1246.20379 70.6034273,1174.93154 0,1077.56374 C245.25556,1008.27361 420.502039,898.968022 525.739438,749.646977 C610.603993,629.232906 649.997376,461.661632 673.487253,325.78744 C638.826833,310.281682 846.204242,123.183202 898.225547,150.487188 Z" id="Combined-Shape-path" fill="#FFFFFF"></path>
            </g>
            <path d="M121.867932,0 L401.635033,14.377958 C312.090648,257.845169 271.963809,447.899824 281.254517,584.541926 C294.783958,783.524761 380.505288,906.683577 538.418506,954.018371 C344.915433,1052.06601 213.700689,1070.77553 144.774273,1010.14693 C41.3846493,919.204026 6.28165787,738.261121 1.31874965,620.632735 C-4.87460607,473.840898 10.7468242,325.268838 48.1830401,174.916556 C81.1122928,71.5938656 99.0872456,17.6376099 102.107898,13.0477887 C106.638876,6.16305684 113.784072,1.44499836 121.867932,0 Z" id="Combined-Shape-path" fill="url(#linearGradient-2)"></path>
        </g>
    </g>
</svg>